<svg aria-hidden="true" xmlns="http://www.w3.org/2000/svg" xmlns:xlink="http://www.w3.org/1999/xlink"><symbol viewBox="0 0 21 26" id="learn-more-icon" xmlns="http://www.w3.org/2000/svg">
<path d="M12.6 4.19971C17.2295 4.19971 20.9996 7.96799 20.9996 12.6042C20.9996 17.2307 17.2295 20.9989 12.6 20.9989C7.97045 20.9989 4.20035 17.2307 4.20035 12.6042C4.20035 7.96799 7.97045 4.19971 12.6 4.19971ZM11.6432 9.2646C11.4649 9.2646 11.2946 9.30512 11.1325 9.38615C10.9298 9.49961 10.7676 9.67789 10.6784 9.88859C10.6217 10.0345 10.5325 10.4721 10.5325 10.4802C10.4433 10.9583 10.3947 11.7363 10.3947 12.5953C10.3947 13.4146 10.4433 14.1593 10.5163 14.6455C10.5244 14.6536 10.6136 15.1966 10.7109 15.383C10.8892 15.7233 11.2379 15.934 11.6108 15.934H11.6432C11.8865 15.9259 12.3973 15.7152 12.3973 15.7071C13.2567 15.3506 14.9512 14.2403 15.6323 13.5029L15.6809 13.4543C15.7701 13.3651 15.8836 13.2274 15.9079 13.195C16.0376 13.0248 16.1025 12.8141 16.1025 12.6042C16.1025 12.3684 16.0295 12.1496 15.8917 11.9713C15.8593 11.9389 15.7377 11.8011 15.6241 11.6876C14.9593 10.9745 13.2243 9.80755 12.3162 9.45099C12.1784 9.39507 11.8297 9.2727 11.6432 9.2646Z"/>
<path fill-rule="evenodd" clip-rule="evenodd" d="M12.5998 5.82168e-09C12.5997 5.82168e-09 12.5995 0 12.5994 0C5.64095 0 0 5.64095 0 12.5994C0 19.5579 5.64095 25.1988 12.5994 25.1988C12.5995 25.1988 12.5997 25.1988 12.5998 25.1988V23.5189C12.5997 23.5189 12.5995 23.5189 12.5994 23.5189C6.56875 23.5189 1.67992 18.6301 1.67992 12.5994C1.67992 6.56875 6.56875 1.67992 12.5994 1.67992C12.5995 1.67992 12.5997 1.67992 12.5998 1.67992V5.82168e-09Z"/>
</symbol><symbol viewBox="0 0 18 18" id="mail" xmlns="http://www.w3.org/2000/svg">
<g clip-path="url(#bclip0_2_11195)">
<path d="M2.25 2.25H15.75C15.9489 2.25 16.1397 2.32902 16.2803 2.46967C16.421 2.61032 16.5 2.80109 16.5 3V15C16.5 15.1989 16.421 15.3897 16.2803 15.5303C16.1397 15.671 15.9489 15.75 15.75 15.75H2.25C2.05109 15.75 1.86032 15.671 1.71967 15.5303C1.57902 15.3897 1.5 15.1989 1.5 15V3C1.5 2.80109 1.57902 2.61032 1.71967 2.46967C1.86032 2.32902 2.05109 2.25 2.25 2.25ZM9.045 8.76225L4.236 4.6785L3.26475 5.8215L9.05475 10.7378L14.7405 5.81775L13.7595 4.683L9.04575 8.76225H9.045Z"/>
</g>
<defs>
<clipPath id="bclip0_2_11195">
<rect width="18" height="18"/>
</clipPath>
</defs>
</symbol><symbol viewBox="0 0 18 18" id="phone" xmlns="http://www.w3.org/2000/svg">
<g clip-path="url(#cclip0_2_11194)">
<path d="M15.75 12.315V14.967C15.7501 15.1569 15.6781 15.3397 15.5487 15.4786C15.4192 15.6176 15.2419 15.7022 15.0525 15.7155C14.7247 15.738 14.457 15.75 14.25 15.75C7.62225 15.75 2.25 10.3778 2.25 3.75C2.25 3.543 2.26125 3.27525 2.2845 2.9475C2.29779 2.75808 2.38244 2.58076 2.52135 2.45131C2.66027 2.32186 2.84312 2.24991 3.033 2.25H5.685C5.77803 2.24991 5.86777 2.28439 5.9368 2.34677C6.00582 2.40914 6.0492 2.49494 6.0585 2.5875C6.07575 2.76 6.0915 2.89725 6.1065 3.0015C6.25555 4.04169 6.561 5.05337 7.0125 6.00225C7.08375 6.15225 7.03725 6.3315 6.90225 6.4275L5.28375 7.584C6.27334 9.88984 8.11091 11.7274 10.4167 12.717L11.5717 11.1015C11.619 11.0355 11.6878 10.9882 11.7664 10.9677C11.8449 10.9473 11.9281 10.9551 12.0015 10.9897C12.9503 11.4404 13.9617 11.7451 15.0015 11.8935C15.1058 11.9085 15.243 11.925 15.414 11.9415C15.5064 11.951 15.592 11.9944 15.6543 12.0634C15.7165 12.1324 15.7509 12.2221 15.7507 12.315H15.75Z"/>
</g>
<defs>
<clipPath id="cclip0_2_11194">
<rect width="18" height="18"/>
</clipPath>
</defs>
</symbol></svg>